<mxfile host="Electron" agent="Mozilla/5.0 (Windows NT 10.0; Win64; x64) AppleWebKit/537.36 (KHTML, like Gecko) draw.io/24.7.17 Chrome/128.0.6613.36 Electron/32.0.1 Safari/537.36" version="24.7.17">
  <diagram id="C5RBs43oDa-KdzZeNtuy" name="Page-1">
    <mxGraphModel dx="1008" dy="592" grid="1" gridSize="10" guides="1" tooltips="1" connect="1" arrows="1" fold="1" page="1" pageScale="1" pageWidth="827" pageHeight="1169" math="0" shadow="0">
      <root>
        <mxCell id="WIyWlLk6GJQsqaUBKTNV-0" />
        <mxCell id="WIyWlLk6GJQsqaUBKTNV-1" parent="WIyWlLk6GJQsqaUBKTNV-0" />
        <mxCell id="04oDr3S_1R-0SBNGFoag-2" value="" style="edgeStyle=orthogonalEdgeStyle;rounded=0;orthogonalLoop=1;jettySize=auto;html=1;" edge="1" parent="WIyWlLk6GJQsqaUBKTNV-1" source="04oDr3S_1R-0SBNGFoag-0" target="04oDr3S_1R-0SBNGFoag-1">
          <mxGeometry relative="1" as="geometry" />
        </mxCell>
        <mxCell id="04oDr3S_1R-0SBNGFoag-0" value="Start" style="ellipse;whiteSpace=wrap;html=1;" vertex="1" parent="WIyWlLk6GJQsqaUBKTNV-1">
          <mxGeometry x="354" y="60" width="120" height="80" as="geometry" />
        </mxCell>
        <mxCell id="04oDr3S_1R-0SBNGFoag-4" value="" style="edgeStyle=orthogonalEdgeStyle;rounded=0;orthogonalLoop=1;jettySize=auto;html=1;" edge="1" parent="WIyWlLk6GJQsqaUBKTNV-1" source="04oDr3S_1R-0SBNGFoag-1" target="04oDr3S_1R-0SBNGFoag-3">
          <mxGeometry relative="1" as="geometry" />
        </mxCell>
        <mxCell id="04oDr3S_1R-0SBNGFoag-1" value="Convertation (3,7,1,100)" style="shape=process;whiteSpace=wrap;html=1;backgroundOutline=1;" vertex="1" parent="WIyWlLk6GJQsqaUBKTNV-1">
          <mxGeometry x="354" y="170" width="120" height="60" as="geometry" />
        </mxCell>
        <mxCell id="04oDr3S_1R-0SBNGFoag-6" value="" style="edgeStyle=orthogonalEdgeStyle;rounded=0;orthogonalLoop=1;jettySize=auto;html=1;" edge="1" parent="WIyWlLk6GJQsqaUBKTNV-1" source="04oDr3S_1R-0SBNGFoag-3" target="04oDr3S_1R-0SBNGFoag-5">
          <mxGeometry relative="1" as="geometry" />
        </mxCell>
        <mxCell id="04oDr3S_1R-0SBNGFoag-3" value="Convertation (5,9,26,30,49,16)" style="shape=process;whiteSpace=wrap;html=1;backgroundOutline=1;" vertex="1" parent="WIyWlLk6GJQsqaUBKTNV-1">
          <mxGeometry x="354" y="260" width="120" height="60" as="geometry" />
        </mxCell>
        <mxCell id="04oDr3S_1R-0SBNGFoag-8" value="" style="edgeStyle=orthogonalEdgeStyle;rounded=0;orthogonalLoop=1;jettySize=auto;html=1;" edge="1" parent="WIyWlLk6GJQsqaUBKTNV-1" source="04oDr3S_1R-0SBNGFoag-5" target="04oDr3S_1R-0SBNGFoag-7">
          <mxGeometry relative="1" as="geometry" />
        </mxCell>
        <mxCell id="04oDr3S_1R-0SBNGFoag-5" value="Convertation (8,19,32,83,65,94,78,27,51)" style="shape=process;whiteSpace=wrap;html=1;backgroundOutline=1;" vertex="1" parent="WIyWlLk6GJQsqaUBKTNV-1">
          <mxGeometry x="309" y="350" width="210" height="60" as="geometry" />
        </mxCell>
        <mxCell id="04oDr3S_1R-0SBNGFoag-7" value="Fnish" style="ellipse;whiteSpace=wrap;html=1;" vertex="1" parent="WIyWlLk6GJQsqaUBKTNV-1">
          <mxGeometry x="349" y="440" width="130" height="70" as="geometry" />
        </mxCell>
      </root>
    </mxGraphModel>
  </diagram>
</mxfile>
